<mxfile host="Electron" agent="Mozilla/5.0 (Windows NT 10.0; Win64; x64) AppleWebKit/537.36 (KHTML, like Gecko) draw.io/24.7.5 Chrome/126.0.6478.183 Electron/31.3.0 Safari/537.36" version="24.7.5">
  <diagram name="第 1 页" id="OtWQBnrd8KjNDYtrYLd6">
    <mxGraphModel dx="522" dy="606" grid="1" gridSize="10" guides="1" tooltips="1" connect="1" arrows="1" fold="1" page="1" pageScale="1" pageWidth="827" pageHeight="1169" math="0" shadow="0">
      <root>
        <mxCell id="0" />
        <mxCell id="1" parent="0" />
        <mxCell id="VEm61S2TE32sMpAX8VFK-34" style="edgeStyle=orthogonalEdgeStyle;rounded=0;orthogonalLoop=1;jettySize=auto;html=1;exitX=0.5;exitY=1;exitDx=0;exitDy=0;" parent="1" source="VEm61S2TE32sMpAX8VFK-1" target="VEm61S2TE32sMpAX8VFK-2" edge="1">
          <mxGeometry relative="1" as="geometry" />
        </mxCell>
        <mxCell id="VEm61S2TE32sMpAX8VFK-1" value="" style="ellipse;html=1;shape=endState;fillColor=#000000;strokeColor=#ff0000;" parent="1" vertex="1">
          <mxGeometry x="399" y="50" width="30" height="30" as="geometry" />
        </mxCell>
        <mxCell id="VEm61S2TE32sMpAX8VFK-2" value="&lt;font style=&quot;font-size: 15px;&quot;&gt;浏览护理视频界面&lt;/font&gt;" style="rounded=1;whiteSpace=wrap;html=1;" parent="1" vertex="1">
          <mxGeometry x="354" y="110" width="120" height="60" as="geometry" />
        </mxCell>
        <mxCell id="VEm61S2TE32sMpAX8VFK-3" value="" style="line;strokeWidth=4;fillColor=none;align=left;verticalAlign=middle;spacingTop=-1;spacingLeft=3;spacingRight=3;rotatable=0;labelPosition=right;points=[];portConstraint=eastwest;strokeColor=inherit;" parent="1" vertex="1">
          <mxGeometry x="150" y="210" width="540" height="8" as="geometry" />
        </mxCell>
        <mxCell id="VEm61S2TE32sMpAX8VFK-4" style="edgeStyle=orthogonalEdgeStyle;rounded=0;orthogonalLoop=1;jettySize=auto;html=1;exitX=0.5;exitY=1;exitDx=0;exitDy=0;entryX=0.495;entryY=-0.125;entryDx=0;entryDy=0;entryPerimeter=0;" parent="1" source="VEm61S2TE32sMpAX8VFK-2" target="VEm61S2TE32sMpAX8VFK-3" edge="1">
          <mxGeometry relative="1" as="geometry" />
        </mxCell>
        <mxCell id="VEm61S2TE32sMpAX8VFK-5" value="" style="endArrow=classic;html=1;rounded=0;" parent="1" edge="1">
          <mxGeometry width="50" height="50" relative="1" as="geometry">
            <mxPoint x="210" y="218" as="sourcePoint" />
            <mxPoint x="210" y="288" as="targetPoint" />
          </mxGeometry>
        </mxCell>
        <mxCell id="VEm61S2TE32sMpAX8VFK-6" value="" style="endArrow=classic;html=1;rounded=0;" parent="1" edge="1">
          <mxGeometry width="50" height="50" relative="1" as="geometry">
            <mxPoint x="419.5" y="218" as="sourcePoint" />
            <mxPoint x="419.5" y="288" as="targetPoint" />
          </mxGeometry>
        </mxCell>
        <mxCell id="VEm61S2TE32sMpAX8VFK-7" value="" style="endArrow=classic;html=1;rounded=0;" parent="1" edge="1">
          <mxGeometry width="50" height="50" relative="1" as="geometry">
            <mxPoint x="630" y="218" as="sourcePoint" />
            <mxPoint x="630" y="288" as="targetPoint" />
          </mxGeometry>
        </mxCell>
        <mxCell id="VEm61S2TE32sMpAX8VFK-8" value="&lt;font style=&quot;font-size: 16px;&quot;&gt;点击播放&lt;/font&gt;" style="rounded=1;whiteSpace=wrap;html=1;" parent="1" vertex="1">
          <mxGeometry x="150" y="290" width="120" height="60" as="geometry" />
        </mxCell>
        <mxCell id="VEm61S2TE32sMpAX8VFK-9" value="&lt;font style=&quot;font-size: 16px;&quot;&gt;点击全屏&lt;/font&gt;" style="rounded=1;whiteSpace=wrap;html=1;" parent="1" vertex="1">
          <mxGeometry x="360" y="290" width="120" height="60" as="geometry" />
        </mxCell>
        <mxCell id="VEm61S2TE32sMpAX8VFK-11" style="edgeStyle=orthogonalEdgeStyle;rounded=0;orthogonalLoop=1;jettySize=auto;html=1;exitX=0.5;exitY=1;exitDx=0;exitDy=0;" parent="1" source="VEm61S2TE32sMpAX8VFK-10" edge="1">
          <mxGeometry relative="1" as="geometry">
            <mxPoint x="630" y="400" as="targetPoint" />
          </mxGeometry>
        </mxCell>
        <mxCell id="VEm61S2TE32sMpAX8VFK-10" value="&lt;font style=&quot;font-size: 16px;&quot;&gt;点击选项栏&lt;/font&gt;" style="rounded=1;whiteSpace=wrap;html=1;" parent="1" vertex="1">
          <mxGeometry x="570" y="290" width="120" height="60" as="geometry" />
        </mxCell>
        <mxCell id="VEm61S2TE32sMpAX8VFK-12" value="" style="line;strokeWidth=4;fillColor=none;align=left;verticalAlign=middle;spacingTop=-1;spacingLeft=3;spacingRight=3;rotatable=0;labelPosition=right;points=[];portConstraint=eastwest;strokeColor=inherit;" parent="1" vertex="1">
          <mxGeometry x="495" y="400" width="395" height="8" as="geometry" />
        </mxCell>
        <mxCell id="VEm61S2TE32sMpAX8VFK-13" value="" style="endArrow=classic;html=1;rounded=0;" parent="1" edge="1">
          <mxGeometry width="50" height="50" relative="1" as="geometry">
            <mxPoint x="550" y="408" as="sourcePoint" />
            <mxPoint x="550" y="478" as="targetPoint" />
          </mxGeometry>
        </mxCell>
        <mxCell id="VEm61S2TE32sMpAX8VFK-14" value="" style="endArrow=classic;html=1;rounded=0;" parent="1" edge="1">
          <mxGeometry width="50" height="50" relative="1" as="geometry">
            <mxPoint x="699.5" y="410" as="sourcePoint" />
            <mxPoint x="699.5" y="480" as="targetPoint" />
          </mxGeometry>
        </mxCell>
        <mxCell id="VEm61S2TE32sMpAX8VFK-15" value="&lt;font style=&quot;font-size: 16px;&quot;&gt;下载&lt;/font&gt;" style="rounded=1;whiteSpace=wrap;html=1;" parent="1" vertex="1">
          <mxGeometry x="495" y="480" width="120" height="60" as="geometry" />
        </mxCell>
        <mxCell id="VEm61S2TE32sMpAX8VFK-16" value="&lt;font style=&quot;font-size: 16px;&quot;&gt;调整播放速度&lt;/font&gt;" style="rounded=1;whiteSpace=wrap;html=1;" parent="1" vertex="1">
          <mxGeometry x="640" y="480" width="120" height="60" as="geometry" />
        </mxCell>
        <mxCell id="VEm61S2TE32sMpAX8VFK-17" value="" style="endArrow=classic;html=1;rounded=0;" parent="1" target="VEm61S2TE32sMpAX8VFK-18" edge="1">
          <mxGeometry width="50" height="50" relative="1" as="geometry">
            <mxPoint x="840" y="410" as="sourcePoint" />
            <mxPoint x="840" y="480" as="targetPoint" />
          </mxGeometry>
        </mxCell>
        <mxCell id="VEm61S2TE32sMpAX8VFK-18" value="&lt;font style=&quot;font-size: 17px;&quot;&gt;画中画&lt;/font&gt;" style="rounded=1;whiteSpace=wrap;html=1;" parent="1" vertex="1">
          <mxGeometry x="780" y="480" width="120" height="60" as="geometry" />
        </mxCell>
        <mxCell id="VEm61S2TE32sMpAX8VFK-22" value="" style="endArrow=classic;html=1;rounded=0;" parent="1" edge="1">
          <mxGeometry width="50" height="50" relative="1" as="geometry">
            <mxPoint x="550" y="540" as="sourcePoint" />
            <mxPoint x="550" y="610" as="targetPoint" />
          </mxGeometry>
        </mxCell>
        <mxCell id="VEm61S2TE32sMpAX8VFK-23" value="" style="endArrow=classic;html=1;rounded=0;" parent="1" edge="1">
          <mxGeometry width="50" height="50" relative="1" as="geometry">
            <mxPoint x="699.5" y="540" as="sourcePoint" />
            <mxPoint x="699.5" y="610" as="targetPoint" />
          </mxGeometry>
        </mxCell>
        <mxCell id="VEm61S2TE32sMpAX8VFK-24" value="" style="endArrow=classic;html=1;rounded=0;" parent="1" edge="1">
          <mxGeometry width="50" height="50" relative="1" as="geometry">
            <mxPoint x="839.5" y="540" as="sourcePoint" />
            <mxPoint x="839.5" y="610" as="targetPoint" />
          </mxGeometry>
        </mxCell>
        <mxCell id="VEm61S2TE32sMpAX8VFK-27" value="" style="line;strokeWidth=4;fillColor=none;align=left;verticalAlign=middle;spacingTop=-1;spacingLeft=3;spacingRight=3;rotatable=0;labelPosition=right;points=[];portConstraint=eastwest;strokeColor=inherit;" parent="1" vertex="1">
          <mxGeometry x="110" y="610" width="770" height="8" as="geometry" />
        </mxCell>
        <mxCell id="VEm61S2TE32sMpAX8VFK-29" value="" style="endArrow=classic;html=1;rounded=0;exitX=0.5;exitY=1;exitDx=0;exitDy=0;" parent="1" source="VEm61S2TE32sMpAX8VFK-9" edge="1">
          <mxGeometry width="50" height="50" relative="1" as="geometry">
            <mxPoint x="419.5" y="370" as="sourcePoint" />
            <mxPoint x="419.5" y="610" as="targetPoint" />
          </mxGeometry>
        </mxCell>
        <mxCell id="VEm61S2TE32sMpAX8VFK-30" value="" style="endArrow=classic;html=1;rounded=0;exitX=0.5;exitY=1;exitDx=0;exitDy=0;" parent="1" edge="1">
          <mxGeometry width="50" height="50" relative="1" as="geometry">
            <mxPoint x="210" y="350" as="sourcePoint" />
            <mxPoint x="209.5" y="610" as="targetPoint" />
          </mxGeometry>
        </mxCell>
        <mxCell id="VEm61S2TE32sMpAX8VFK-31" value="" style="endArrow=classic;html=1;rounded=0;" parent="1" edge="1">
          <mxGeometry width="50" height="50" relative="1" as="geometry">
            <mxPoint x="480" y="610" as="sourcePoint" />
            <mxPoint x="480" y="700" as="targetPoint" />
          </mxGeometry>
        </mxCell>
        <mxCell id="VEm61S2TE32sMpAX8VFK-32" value="" style="ellipse;html=1;shape=endState;fillColor=#000000;strokeColor=#ff0000;" parent="1" vertex="1">
          <mxGeometry x="465" y="700" width="30" height="30" as="geometry" />
        </mxCell>
      </root>
    </mxGraphModel>
  </diagram>
</mxfile>
